<mxfile host="app.diagrams.net" agent="Mozilla/5.0 (Windows NT 10.0; Win64; x64) AppleWebKit/537.36 (KHTML, like Gecko) Chrome/129.0.0.0 Safari/537.36" version="24.7.16">
  <diagram name="Page-1" id="aUFB5li6CsV_3EYIewI0">
    <mxGraphModel dx="3829" dy="2243" grid="1" gridSize="10" guides="1" tooltips="1" connect="1" arrows="1" fold="1" page="1" pageScale="1" pageWidth="850" pageHeight="1100" math="0" shadow="0">
      <root>
        <mxCell id="0" />
        <mxCell id="1" parent="0" />
        <mxCell id="opZQIj0cn2ucfGYVO7Pv-3" value="&lt;font style=&quot;font-size: 29px;&quot;&gt;ADMIN&lt;/font&gt;" style="shape=singleArrow;direction=south;whiteSpace=wrap;html=1;rotation=35;arrowWidth=0.7865786352460152;arrowSize=0.2501671267592951;fillColor=#bac8d3;strokeColor=#23445d;" vertex="1" parent="1">
          <mxGeometry x="-790" y="422.09000000000003" width="150" height="195.81" as="geometry" />
        </mxCell>
        <mxCell id="opZQIj0cn2ucfGYVO7Pv-25" value="&lt;font style=&quot;font-size: 20px;&quot;&gt;Maintenance Record Management page&lt;/font&gt;" style="html=1;whiteSpace=wrap;strokeColor=none;fillColor=#0079D6;labelPosition=center;verticalLabelPosition=middle;verticalAlign=top;align=center;fontSize=12;outlineConnect=0;spacingTop=-6;fontColor=#FFFFFF;sketch=0;shape=mxgraph.sitemap.page;" vertex="1" parent="1">
          <mxGeometry x="-1650" y="630" width="410" height="280" as="geometry" />
        </mxCell>
        <mxCell id="opZQIj0cn2ucfGYVO7Pv-26" value="&lt;font style=&quot;font-size: 26px;&quot;&gt;Aircraft List page&lt;/font&gt;" style="html=1;whiteSpace=wrap;strokeColor=none;fillColor=#0079D6;labelPosition=center;verticalLabelPosition=middle;verticalAlign=top;align=center;fontSize=12;outlineConnect=0;spacingTop=-6;fontColor=#FFFFFF;sketch=0;shape=mxgraph.sitemap.page;" vertex="1" parent="1">
          <mxGeometry x="-1140" y="630" width="360" height="290" as="geometry" />
        </mxCell>
        <mxCell id="opZQIj0cn2ucfGYVO7Pv-28" value="&lt;font style=&quot;font-size: 25px;&quot;&gt;Performance Metrics Dashboard page&lt;/font&gt;" style="html=1;whiteSpace=wrap;strokeColor=none;fillColor=#0079D6;labelPosition=center;verticalLabelPosition=middle;verticalAlign=top;align=center;fontSize=12;outlineConnect=0;spacingTop=-6;fontColor=#FFFFFF;sketch=0;shape=mxgraph.sitemap.page;" vertex="1" parent="1">
          <mxGeometry x="-680" y="630" width="350" height="290" as="geometry" />
        </mxCell>
        <mxCell id="opZQIj0cn2ucfGYVO7Pv-34" value="" style="strokeWidth=1;shadow=0;dashed=0;align=center;html=1;shape=mxgraph.mockup.containers.browserWindow;rSize=0;strokeColor=#666666;mainText=,;recursiveResize=0;rounded=0;labelBackgroundColor=none;fontFamily=Verdana;fontSize=12" vertex="1" parent="1">
          <mxGeometry x="-640" y="-570" width="1050" height="950" as="geometry" />
        </mxCell>
        <mxCell id="opZQIj0cn2ucfGYVO7Pv-35" value="Page 1" style="strokeWidth=1;shadow=0;dashed=0;align=center;html=1;shape=mxgraph.mockup.containers.anchor;fontSize=17;fontColor=#666666;align=left;" vertex="1" parent="opZQIj0cn2ucfGYVO7Pv-34">
          <mxGeometry x="60" y="12" width="110" height="26" as="geometry" />
        </mxCell>
        <mxCell id="opZQIj0cn2ucfGYVO7Pv-36" value="https://www.fix-my-aircraft.com/login" style="strokeWidth=1;shadow=0;dashed=0;align=center;html=1;shape=mxgraph.mockup.containers.anchor;rSize=0;fontSize=17;fontColor=#666666;align=left;" vertex="1" parent="opZQIj0cn2ucfGYVO7Pv-34">
          <mxGeometry x="130" y="60" width="250" height="26" as="geometry" />
        </mxCell>
        <mxCell id="opZQIj0cn2ucfGYVO7Pv-43" value="&lt;br&gt;&lt;div&gt;&lt;br&gt;&lt;/div&gt;" style="text;html=1;points=[];align=left;verticalAlign=top;spacingTop=-4;fontSize=30;fontFamily=Verdana" vertex="1" parent="opZQIj0cn2ucfGYVO7Pv-34">
          <mxGeometry x="465" y="410" width="145" height="50" as="geometry" />
        </mxCell>
        <mxCell id="opZQIj0cn2ucfGYVO7Pv-23" value="" style="ellipse;whiteSpace=wrap;html=1;aspect=fixed;fillColor=#0050ef;fontColor=#ffffff;strokeColor=#001DBC;" vertex="1" parent="opZQIj0cn2ucfGYVO7Pv-34">
          <mxGeometry x="420" y="140" width="230" height="230" as="geometry" />
        </mxCell>
        <mxCell id="opZQIj0cn2ucfGYVO7Pv-24" value="" style="shape=mxgraph.signs.transportation.airplane_1;html=1;pointerEvents=1;fillColor=#000000;strokeColor=none;verticalLabelPosition=bottom;verticalAlign=top;align=center;" vertex="1" parent="opZQIj0cn2ucfGYVO7Pv-34">
          <mxGeometry x="443.75" y="210" width="187.5" height="115" as="geometry" />
        </mxCell>
        <mxCell id="opZQIj0cn2ucfGYVO7Pv-18" value="&lt;font style=&quot;font-size: 15px;&quot;&gt;USERNAME&lt;/font&gt;" style="rounded=1;whiteSpace=wrap;html=1;fillColor=#dae8fc;gradientColor=#7ea6e0;strokeColor=#6c8ebf;" vertex="1" parent="opZQIj0cn2ucfGYVO7Pv-34">
          <mxGeometry x="410" y="560" width="230" height="40" as="geometry" />
        </mxCell>
        <mxCell id="opZQIj0cn2ucfGYVO7Pv-19" value="&lt;font style=&quot;font-size: 19px;&quot;&gt;PASSWORD&lt;/font&gt;" style="rounded=1;whiteSpace=wrap;html=1;fillColor=#dae8fc;gradientColor=#7ea6e0;strokeColor=#6c8ebf;" vertex="1" parent="opZQIj0cn2ucfGYVO7Pv-34">
          <mxGeometry x="410" y="630" width="230" height="40" as="geometry" />
        </mxCell>
        <mxCell id="opZQIj0cn2ucfGYVO7Pv-21" value="&lt;font style=&quot;font-size: 24px;&quot;&gt;LOGIN&lt;/font&gt;" style="rounded=1;whiteSpace=wrap;html=1;fillColor=#cce5ff;strokeColor=#36393d;" vertex="1" parent="opZQIj0cn2ucfGYVO7Pv-34">
          <mxGeometry x="430" y="740" width="180" height="80" as="geometry" />
        </mxCell>
        <mxCell id="opZQIj0cn2ucfGYVO7Pv-91" value="&lt;font style=&quot;font-size: 29px;&quot;&gt;USER&lt;/font&gt;" style="shape=singleArrow;direction=south;whiteSpace=wrap;html=1;rotation=-30;arrowWidth=0.7865786352460152;arrowSize=0.2501671267592951;fillColor=#bac8d3;strokeColor=#23445d;" vertex="1" parent="1">
          <mxGeometry x="410" y="422.09000000000003" width="150" height="195.81" as="geometry" />
        </mxCell>
        <mxCell id="opZQIj0cn2ucfGYVO7Pv-92" value="&lt;font style=&quot;font-size: 26px;&quot;&gt;Aircraft List page&lt;/font&gt;" style="html=1;whiteSpace=wrap;strokeColor=none;fillColor=#0079D6;labelPosition=center;verticalLabelPosition=middle;verticalAlign=top;align=center;fontSize=12;outlineConnect=0;spacingTop=-6;fontColor=#FFFFFF;sketch=0;shape=mxgraph.sitemap.page;" vertex="1" parent="1">
          <mxGeometry x="340" y="640" width="360" height="290" as="geometry" />
        </mxCell>
        <mxCell id="opZQIj0cn2ucfGYVO7Pv-94" value="&lt;font style=&quot;font-size: 25px;&quot;&gt;Performance Metrics Dashboard page&lt;/font&gt;" style="html=1;whiteSpace=wrap;strokeColor=none;fillColor=#0079D6;labelPosition=center;verticalLabelPosition=middle;verticalAlign=top;align=center;fontSize=12;outlineConnect=0;spacingTop=-6;fontColor=#FFFFFF;sketch=0;shape=mxgraph.sitemap.page;" vertex="1" parent="1">
          <mxGeometry x="800" y="640" width="350" height="290" as="geometry" />
        </mxCell>
      </root>
    </mxGraphModel>
  </diagram>
</mxfile>
